<svg data-v-423bf9ae="" xmlns="http://www.w3.org/2000/svg" viewBox="0 0 552 97" class="iconLeftSlogan"><!----><!----><!----><g data-v-423bf9ae="" id="66e6ff9f-62fa-46e4-82e2-0184bd9aedce" fill="white" transform="matrix(4.611836910247803,0,0,4.611836910247803,94.08686828613281,-3.2282845973968506)"><path d="M6.08 6.20C7.38 5.91 7.90 4.68 7.90 3.42C7.90 2.28 7.42 1.41 6.47 1.05C5.91 0.84 5.25 0.76 4.24 0.76L1.25 0.76L1.25 10.64L2.37 10.64L2.37 6.40L4.14 6.40C4.80 6.40 5.54 6.33 6.08 6.20ZM2.37 5.68L2.37 1.44L4.26 1.44C4.90 1.44 5.50 1.48 5.94 1.74C6.51 2.07 6.72 2.79 6.72 3.46C6.72 4.34 6.47 5.03 5.95 5.33C5.60 5.54 5.03 5.68 4.17 5.68ZM10.57 10.64L10.57 6.40C10.57 5.78 10.68 5.26 10.95 4.90C11.26 4.48 11.68 4.34 12.14 4.34C12.42 4.34 12.77 4.38 13.05 4.51L13.05 3.54C12.81 3.47 12.57 3.44 12.29 3.44C11.65 3.44 10.88 3.86 10.53 4.62C10.53 4.41 10.49 3.92 10.42 3.58L9.38 3.58C9.48 4.23 9.52 5.04 9.52 5.73L9.52 10.64ZM15.61 10.64L15.61 3.58L14.55 3.58L14.55 10.64ZM15.72 1.40C15.72 0.87 15.53 0.70 15.09 0.70C14.64 0.70 14.42 0.88 14.42 1.40C14.42 1.95 14.63 2.10 15.06 2.10C15.51 2.10 15.72 1.92 15.72 1.40ZM23.25 3.58L22.22 3.58C20.92 7.31 20.58 8.23 20.16 9.62C19.68 8.19 19.39 7.32 18.03 3.58L16.87 3.58L19.53 10.64L20.52 10.64ZM28.35 10.64L29.37 10.64C29.20 10.11 29.19 9.56 29.19 9.09L29.19 5.80C29.19 4.79 28.99 4.33 28.63 3.95C28.20 3.51 27.50 3.40 26.80 3.40C26.11 3.40 25.20 3.56 24.46 3.91L24.46 4.72C25.33 4.24 26.08 4.14 26.67 4.14C27.19 4.14 27.59 4.28 27.83 4.59C28.07 4.90 28.15 5.39 28.15 5.91L28.15 6.54C27.90 6.52 27.54 6.51 27.27 6.51C24.82 6.51 23.79 7.28 23.79 8.65C23.79 9.90 24.61 10.81 26.04 10.81C27.16 10.81 27.82 10.32 28.18 9.66C28.20 9.93 28.28 10.40 28.35 10.64ZM28.15 7.11L28.15 8.11C28.15 8.57 28.08 9.03 27.82 9.34C27.45 9.79 26.91 10.09 26.25 10.09C25.35 10.09 24.85 9.52 24.85 8.62C24.85 7.78 25.45 7.10 27.47 7.10C27.69 7.10 27.96 7.10 28.15 7.11ZM34.59 10.58L34.59 9.88C34.36 9.97 33.98 10.01 33.70 10.01C33.32 10.01 33.01 9.87 32.90 9.62C32.82 9.42 32.76 9.11 32.76 8.51L32.76 4.21L34.34 4.21L34.34 3.58L32.76 3.58L32.76 1.76L31.81 1.76C31.74 2.79 31.71 3.58 31.71 3.58L30.63 3.58L30.63 4.21L31.71 4.21L31.71 8.53C31.71 9.21 31.74 9.65 31.95 10.02C32.20 10.50 32.69 10.74 33.50 10.74C33.85 10.74 34.30 10.67 34.59 10.58ZM41.16 7.10L41.16 6.82C41.16 6.06 41.09 5.33 40.82 4.76C40.43 3.93 39.84 3.40 38.43 3.40C36.50 3.40 35.39 4.72 35.39 7.08C35.39 9.67 36.48 10.82 38.56 10.82C39.68 10.82 40.39 10.56 40.88 10.29L40.88 9.49C40.31 9.80 39.70 10.11 38.72 10.11C37.28 10.11 36.48 9.09 36.47 7.10ZM40.03 6.51L36.50 6.51C36.55 4.61 37.49 4.02 38.39 4.02C39.77 4.02 40.03 5.00 40.03 6.51ZM47.19 4.41C47.17 4.19 47.11 3.79 47.07 3.58L46.05 3.58C46.12 4.03 46.17 4.69 46.17 5.22L46.17 13.71L47.22 13.71L47.22 10.16C47.71 10.60 48.31 10.79 49.14 10.79C50.39 10.79 52.00 10.08 52.00 7.01C52.00 4.63 51.02 3.43 49.34 3.43C48.43 3.43 47.75 3.77 47.19 4.41ZM47.21 7.18C47.21 5.29 47.31 4.93 47.81 4.52C48.06 4.33 48.55 4.06 49.13 4.06C50.26 4.06 50.90 4.98 50.90 7.03C50.90 9.25 50.15 10.16 49.03 10.16C48.44 10.16 47.94 10.05 47.57 9.65C47.25 9.30 47.21 8.74 47.21 7.18ZM54.96 10.64L54.96 6.40C54.96 5.78 55.08 5.26 55.34 4.90C55.65 4.48 56.07 4.34 56.53 4.34C56.81 4.34 57.16 4.38 57.44 4.51L57.44 3.54C57.20 3.47 56.97 3.44 56.69 3.44C56.04 3.44 55.27 3.86 54.92 4.62C54.92 4.41 54.88 3.92 54.81 3.58L53.77 3.58C53.87 4.23 53.91 5.04 53.91 5.73L53.91 10.64ZM64.43 7.10C64.43 4.52 63.50 3.40 61.43 3.40C59.44 3.40 58.24 4.69 58.24 7.11C58.24 9.53 59.30 10.81 61.31 10.81C63.49 10.81 64.43 9.42 64.43 7.10ZM63.34 7.08C63.34 8.96 62.83 10.19 61.36 10.19C60.00 10.19 59.33 9.14 59.33 7.13C59.33 5.00 60.10 4.03 61.40 4.03C62.78 4.03 63.34 4.98 63.34 7.08ZM69.40 10.58L69.40 9.88C69.16 9.97 68.78 10.01 68.50 10.01C68.12 10.01 67.82 9.87 67.70 9.62C67.62 9.42 67.56 9.11 67.56 8.51L67.56 4.21L69.15 4.21L69.15 3.58L67.56 3.58L67.56 1.76L66.61 1.76C66.54 2.79 66.51 3.58 66.51 3.58L65.44 3.58L65.44 4.21L66.51 4.21L66.51 8.53C66.51 9.21 66.54 9.65 66.75 10.02C67.00 10.50 67.49 10.74 68.31 10.74C68.66 10.74 69.10 10.67 69.40 10.58ZM75.96 7.10L75.96 6.82C75.96 6.06 75.89 5.33 75.63 4.76C75.24 3.93 74.65 3.40 73.23 3.40C71.30 3.40 70.20 4.72 70.20 7.08C70.20 9.67 71.29 10.82 73.36 10.82C74.48 10.82 75.19 10.56 75.68 10.29L75.68 9.49C75.11 9.80 74.51 10.11 73.53 10.11C72.09 10.11 71.29 9.09 71.27 7.10ZM74.83 6.51L71.30 6.51C71.36 4.61 72.30 4.02 73.19 4.02C74.58 4.02 74.83 5.00 74.83 6.51ZM82.18 10.43L82.18 9.65C81.68 9.91 81.13 10.11 80.46 10.11C79.17 10.11 78.26 9.23 78.26 7.15C78.26 5.10 79.06 4.14 80.43 4.14C81.06 4.14 81.66 4.24 82.14 4.54L82.14 3.61C81.68 3.47 81.10 3.40 80.44 3.40C78.39 3.40 77.17 4.65 77.17 7.22C77.17 9.70 78.36 10.82 80.26 10.82C81.19 10.82 81.76 10.63 82.18 10.43ZM86.83 10.58L86.83 9.88C86.59 9.97 86.21 10.01 85.93 10.01C85.55 10.01 85.25 9.87 85.13 9.62C85.05 9.42 84.99 9.11 84.99 8.51L84.99 4.21L86.58 4.21L86.58 3.58L84.99 3.58L84.99 1.76L84.04 1.76C83.97 2.79 83.94 3.58 83.94 3.58L82.87 3.58L82.87 4.21L83.94 4.21L83.94 8.53C83.94 9.21 83.97 9.65 84.18 10.02C84.43 10.50 84.92 10.74 85.74 10.74C86.09 10.74 86.53 10.67 86.83 10.58ZM93.81 7.10C93.81 4.52 92.89 3.40 90.82 3.40C88.83 3.40 87.63 4.69 87.63 7.11C87.63 9.53 88.69 10.81 90.69 10.81C92.88 10.81 93.81 9.42 93.81 7.10ZM92.72 7.08C92.72 8.96 92.22 10.19 90.75 10.19C89.39 10.19 88.72 9.14 88.72 7.13C88.72 5.00 89.49 4.03 90.79 4.03C92.16 4.03 92.72 4.98 92.72 7.08ZM96.78 10.64L96.78 6.40C96.78 5.78 96.89 5.26 97.16 4.90C97.47 4.48 97.89 4.34 98.35 4.34C98.63 4.34 98.98 4.38 99.26 4.51L99.26 3.54C99.02 3.47 98.78 3.44 98.50 3.44C97.86 3.44 97.09 3.86 96.74 4.62C96.74 4.41 96.70 3.92 96.63 3.58L95.59 3.58C95.69 4.23 95.73 5.04 95.73 5.73L95.73 10.64Z"></path></g><!----><g data-v-423bf9ae="" id="ff97e57b-7611-4c26-a1f8-eec8374d93bb" transform="matrix(1.0365420579910278,0,0,1.0365420579910278,-12.378270149230957,-3.471482515335083)" stroke="none" fill="white"><path d="M50.123 13.665c-1.917 0-8.432.09-14.569 1.198-.753 3.264-4.041 14.249-14.254 15.037-.192 2.428-.454 8.75 1.004 16.565 3.675.878 14.169 3.029 28.596 2.97V13.671c-.084 0-.338-.006-.777-.006zM50.899 86.164C70.24 75.846 77.168 59.127 79.521 46.393A140.398 140.398 0 0 1 50.9 49.435v36.729z"></path><path d="M89.052 23.537c-14.883 0-17.777-18.468-17.777-18.468C61.587 3.152 50.9 3.362 50.9 3.362s-10.686-.21-20.375 1.707c0 0-2.895 18.468-17.778 18.468 0 0-6.791 49.736 38.153 73.107 44.944-23.371 38.152-73.107 38.152-73.107zM51.493 88.766l-.594.309-.596-.309C13.672 69.715 18.792 28.889 18.851 28.479l.152-1.115h1.124c10.775 0 13.043-13.667 13.067-13.805l.138-.889.884-.178c6.417-1.269 13.262-1.402 15.907-1.402.474 0 .753.004.795.004.003 0 .283-.004.757-.004 2.646 0 9.487.134 15.907 1.402l.882.178.142.889c.091.562 2.322 13.805 13.066 13.805h1.125l.151 1.115c.057.41 5.179 41.236-31.455 60.287z"></path></g><!----><g data-v-423bf9ae="" id="7d5ca6e9-48e9-4928-8768-ab85db8bd8b5" fill="white" transform="matrix(0.9558934569358826,0,0,0.9558934569358826,99.15386199951172,57.22791290283203)"><path d="M0.73 5.77C0.73 9.07 5.71 8.20 5.71 10.65C5.71 11.59 4.87 12.31 3.89 12.31C3.07 12.31 1.47 11.83 1.44 11.47L1.36 10.15C1.34 9.97 1.27 9.91 1.09 9.91L1.02 9.91C0.81 9.91 0.81 10.00 0.81 10.12C0.81 10.32 0.92 11.66 0.95 12.17C0.97 12.38 2.23 12.85 3.77 12.85C5.33 12.85 6.94 11.87 6.94 10.11C6.94 6.79 1.97 7.87 1.97 5.32C1.97 4.31 2.76 3.56 3.79 3.56C4.82 3.56 5.91 4.58 5.91 4.89C5.91 5.01 5.87 5.73 5.87 5.78C5.87 5.92 5.91 5.99 6.17 5.99C6.41 5.99 6.43 5.94 6.43 5.75C6.43 5.04 6.51 3.68 6.51 3.53C6.51 3.30 6.47 3.29 6.20 3.29C5.98 3.29 5.96 3.32 5.95 3.53C5.95 3.61 5.94 3.78 5.89 3.78C5.84 3.78 5.75 3.74 5.68 3.68C4.89 3.14 4.27 3.08 3.77 3.08C2.24 3.08 0.73 4.17 0.73 5.77ZM14.91 12.39C14.91 12.63 14.94 12.68 15.13 12.68C15.46 12.68 16.42 12.64 16.84 12.64C17.26 12.64 21.77 12.68 22.09 12.68C22.22 12.68 22.37 12.66 22.37 12.49C22.37 12.07 22.41 11.23 22.41 10.53C22.41 10.39 22.26 10.39 22.13 10.39C22.02 10.39 21.90 10.39 21.90 10.51C21.88 11.06 21.88 11.41 21.85 11.76C21.83 12.01 21.83 12.04 21.73 12.04C21.57 12.04 18.94 12.08 17.44 12.08C17.37 12.08 17.33 10.11 17.29 8.26C17.29 8.06 17.33 8.09 17.47 8.09L19.75 8.09C20.45 8.09 20.48 8.20 20.48 8.30L20.48 9.00C20.48 9.14 20.66 9.14 20.78 9.14C20.87 9.14 21 9.13 21 9.02C21 8.83 20.97 8.33 20.97 7.83C20.97 7.32 21 6.83 21 6.71C21 6.59 20.86 6.58 20.76 6.58C20.65 6.58 20.48 6.59 20.48 6.72L20.48 7.45C20.48 7.62 20.03 7.63 19.75 7.63L17.42 7.63C17.30 7.63 17.29 7.63 17.29 7.45C17.28 6.75 17.26 6.06 17.26 5.46C17.26 5.12 17.26 3.71 17.35 3.71C18.58 3.71 21.08 3.75 21.08 3.81C21.08 3.99 21.04 4.83 21.04 4.89C21.04 5.04 21.11 5.10 21.29 5.10C21.49 5.10 21.56 5.08 21.56 4.94C21.56 3.85 21.62 3.36 21.62 3.09C21.62 2.91 21.53 2.90 21.34 2.90C21.14 2.90 21.14 2.95 21.11 3.11C21.10 3.25 21.17 3.25 20.26 3.25C19.64 3.25 17.50 3.29 16.73 3.29C16.24 3.29 15.30 3.25 15.20 3.25C15.08 3.25 15.02 3.30 15.02 3.49C15.02 3.72 15.09 3.74 15.26 3.74L15.92 3.74C15.97 3.74 16.04 4.79 16.04 5.71C16.04 5.80 16.10 8.27 16.10 9.83L16.10 11.17C16.10 11.84 16.07 12.18 16.04 12.18L15.19 12.18C14.97 12.18 14.91 12.21 14.91 12.39ZM30.45 7.91C30.45 11.31 32.82 12.87 35.41 12.87C37.18 12.87 38.96 11.90 39.00 11.59C39.17 10.29 39.23 9.70 39.23 9.66C39.23 9.56 39.19 9.52 39.02 9.51C38.96 9.51 38.91 9.49 38.86 9.49C38.75 9.49 38.70 9.53 38.67 9.70L38.49 11.33C38.47 11.45 37.37 12.24 35.80 12.24C33.67 12.24 31.96 10.29 31.96 7.94C31.96 5.42 33.39 3.54 35.39 3.54C37.24 3.54 38.58 5.01 38.58 5.17C38.58 5.29 38.53 6.40 38.53 6.45C38.53 6.59 38.57 6.64 38.84 6.64C39.03 6.64 39.10 6.62 39.10 6.44C39.10 5.73 39.16 3.92 39.16 3.67C39.16 3.47 39.05 3.44 38.84 3.44C38.61 3.44 38.58 3.50 38.58 3.67L38.58 4.05C38.58 4.16 38.54 4.16 38.42 4.06C38.14 3.86 37.16 3.04 35.49 3.04C32.65 3.04 30.45 4.96 30.45 7.91ZM47.61 3.51C47.61 3.75 47.70 3.77 47.87 3.77L48.40 3.77C48.45 3.77 48.45 4.12 48.45 4.55C48.45 5.66 48.44 8.96 48.44 9.42C48.44 11.13 48.69 12.80 51.55 12.80C52.63 12.80 53.79 12.38 54.45 12.00C54.70 11.86 54.99 11.72 55.08 11.72C55.34 11.72 55.61 12.74 55.94 12.74C56.27 12.74 56.28 12.35 56.28 12.25C56.28 11.96 56.34 10.08 56.38 8.16C56.43 6.12 56.42 3.77 56.53 3.77L56.85 3.77C57.08 3.77 57.15 3.75 57.15 3.56C57.15 3.32 57.11 3.26 56.91 3.26C56.77 3.26 56.24 3.30 55.82 3.30C55.40 3.30 54.60 3.26 54.38 3.26C54.19 3.26 54.10 3.28 54.10 3.51C54.10 3.75 54.21 3.77 54.38 3.77L55.08 3.77C55.15 3.77 55.16 4.30 55.16 4.87L55.16 9.14C55.16 11.19 55.16 11.12 54.82 11.34C54.43 11.61 53.62 12.08 52.44 12.08C50.47 12.08 49.67 11.17 49.67 9.41C49.67 8.82 49.74 3.77 49.85 3.77L50.76 3.77C50.99 3.77 51.03 3.75 51.03 3.56C51.03 3.32 51.02 3.26 50.82 3.26C50.50 3.26 49.62 3.30 49.20 3.30C48.78 3.30 48.09 3.26 47.87 3.26C47.68 3.26 47.61 3.28 47.61 3.51ZM65.18 3.51C65.18 3.72 65.25 3.79 65.45 3.79L66.26 3.77C66.36 3.77 66.40 6.61 66.40 8.55L66.40 10.42C66.40 11.30 66.39 12.18 66.35 12.18L65.74 12.18C65.52 12.18 65.45 12.19 65.45 12.39C65.45 12.63 65.49 12.68 65.69 12.68C65.81 12.68 66.64 12.64 67.06 12.64C67.48 12.64 68.25 12.68 68.57 12.68C68.74 12.68 68.77 12.61 68.77 12.40C68.77 12.24 68.74 12.18 68.57 12.18L67.76 12.18C67.69 12.18 67.61 9.18 67.61 8.37C67.61 8.30 67.61 8.26 67.72 8.26C68.11 8.26 68.71 8.27 69.01 8.27C71.25 8.32 71.39 10.00 71.39 11.68L71.39 12.49C71.39 12.61 71.44 12.64 71.54 12.64C71.54 12.64 72.98 12.68 73.46 12.68C73.63 12.68 73.68 12.64 73.68 12.53C73.68 12.24 73.63 12.18 73.47 12.18L72.83 12.18C72.73 12.18 72.70 12.14 72.67 11.31C72.59 8.99 71.22 8.34 70.31 8.05C70.17 8.01 70.20 8.01 70.31 7.95C70.90 7.69 72.21 6.94 72.21 5.63C72.21 3.63 70.52 3.21 69.12 3.21C68.80 3.21 67.51 3.29 67.09 3.29C66.67 3.29 65.69 3.26 65.46 3.26C65.28 3.26 65.18 3.28 65.18 3.51ZM67.61 7.80L67.61 4.40C67.61 4.05 67.63 3.68 67.68 3.68C67.89 3.65 68.17 3.65 68.39 3.65C69.69 3.65 70.94 4.47 70.94 5.82C70.94 6.99 70.39 7.57 69.73 7.88C69.69 7.90 69.65 7.90 69.58 7.90C69.10 7.88 68.39 7.88 67.79 7.87C67.62 7.87 67.61 7.85 67.61 7.80ZM81.02 12.39C81.02 12.63 81.06 12.68 81.26 12.68C81.58 12.68 82.33 12.64 83.05 12.64C83.71 12.64 84.50 12.68 84.73 12.68C84.90 12.68 84.92 12.61 84.92 12.40C84.92 12.24 84.90 12.18 84.73 12.18L83.76 12.18C83.66 12.18 83.64 9.55 83.64 7.76L83.64 5.87C83.64 5.14 83.66 3.70 83.76 3.70L84.67 3.70C84.90 3.70 84.92 3.68 84.92 3.49C84.92 3.25 84.90 3.19 84.73 3.19C84.41 3.19 83.73 3.23 83.08 3.23C82.26 3.23 81.55 3.19 81.33 3.19C81.14 3.19 81.07 3.21 81.07 3.44C81.07 3.68 81.16 3.70 81.33 3.70L82.25 3.70C82.29 3.70 82.36 4.79 82.36 5.71L82.36 7.08C82.36 8.92 82.35 12.18 82.24 12.18L81.31 12.18C81.09 12.18 81.02 12.19 81.02 12.39ZM92.55 5.01C92.55 5.17 92.74 5.17 92.86 5.17C93.02 5.17 93.06 5.15 93.07 4.97L93.18 3.89C93.20 3.81 93.74 3.75 94.50 3.75L96.49 3.75C96.54 3.75 96.57 4.35 96.57 4.97C96.57 6.43 96.52 12.18 96.39 12.18L95.52 12.18C95.30 12.18 95.26 12.19 95.26 12.39C95.26 12.63 95.27 12.68 95.47 12.68C95.79 12.68 96.77 12.64 97.19 12.64C97.61 12.64 98.55 12.68 98.87 12.68C99.04 12.68 99.06 12.61 99.06 12.40C99.06 12.24 99.04 12.18 98.87 12.18L97.87 12.18C97.85 12.18 97.85 11.76 97.85 11.31C97.85 9.56 97.93 5.96 97.93 5.92C97.94 5.18 97.94 3.75 98.04 3.75L99.65 3.75C100.37 3.75 101.19 3.78 101.19 3.85C101.19 3.99 101.15 4.90 101.15 4.97C101.15 5.12 101.22 5.17 101.40 5.17C101.60 5.17 101.67 5.17 101.67 5.03C101.67 3.93 101.72 3.40 101.72 3.14C101.72 2.94 101.64 2.94 101.44 2.94C101.29 2.94 101.23 2.98 101.22 3.16C101.22 3.23 100.58 3.28 99.74 3.28L94.74 3.28C94.08 3.28 93.27 3.28 93.27 3.21L93.27 3.07C93.27 2.94 93.14 2.94 93.04 2.94C92.82 2.94 92.79 3.00 92.78 3.19C92.72 3.89 92.55 4.97 92.55 5.01ZM109.06 3.44C109.06 3.68 109.14 3.70 109.31 3.70L109.72 3.70C109.84 3.70 112.10 7.74 112.50 8.50C112.56 8.60 112.60 8.65 112.60 8.81C112.60 10.50 112.59 12.18 112.46 12.18L111.75 12.18C111.52 12.18 111.48 12.19 111.48 12.39C111.48 12.63 111.50 12.68 111.69 12.68C111.89 12.68 112.70 12.64 113.29 12.64C114.11 12.64 114.65 12.68 114.97 12.68C115.14 12.68 115.16 12.61 115.16 12.40C115.16 12.24 115.14 12.18 114.97 12.18L114.00 12.18C113.90 12.18 113.88 9.72 113.88 8.22C113.88 8.18 113.88 8.15 113.92 8.09C114.46 7.22 116.41 3.70 116.48 3.70L116.96 3.70C117.12 3.70 117.22 3.68 117.22 3.44C117.22 3.22 117.14 3.19 116.96 3.19C116.73 3.19 116.49 3.23 115.89 3.23C115.30 3.23 114.97 3.19 114.80 3.19C114.60 3.19 114.56 3.25 114.56 3.49C114.56 3.68 114.63 3.70 114.86 3.70L115.58 3.70C115.60 3.70 115.61 3.71 115.61 3.74C115.61 4.05 114.04 6.99 113.67 7.71C113.55 7.92 113.55 7.88 113.44 7.67C113.04 6.89 111.75 4.56 111.45 3.85C111.40 3.71 111.38 3.70 111.57 3.70L112.39 3.70C112.62 3.70 112.64 3.68 112.64 3.49C112.64 3.25 112.60 3.19 112.45 3.19C112.21 3.19 111.59 3.23 110.80 3.23C109.98 3.23 109.49 3.19 109.31 3.19C109.13 3.19 109.06 3.21 109.06 3.44ZM124.14 12.07C124.14 12.31 124.59 12.75 125.01 12.75C125.19 12.75 125.64 12.35 125.64 11.90C125.64 11.51 125.06 11.20 124.80 11.20C124.53 11.20 124.14 11.76 124.14 12.07ZM143.75 3.51C143.75 3.75 143.79 3.79 144.00 3.79L144.93 3.77C144.98 3.77 144.98 4.47 144.98 5.24L144.98 5.96C144.98 7.70 144.97 12.18 144.86 12.18L144.19 12.18C143.96 12.18 143.89 12.19 143.89 12.39C143.89 12.63 143.91 12.68 144.10 12.68C144.23 12.68 145.21 12.64 145.63 12.64C146.05 12.64 146.92 12.68 147.24 12.68C147.41 12.68 147.43 12.61 147.43 12.40C147.43 12.24 147.41 12.18 147.24 12.18L146.24 12.18C146.20 12.18 146.19 10.60 146.19 9.58L146.19 8.65C146.19 8.57 146.19 8.54 146.29 8.54C146.68 8.54 147 8.58 147.50 8.58C149.49 8.58 150.89 7.83 150.89 6.01C150.89 4.09 149.41 3.22 147.49 3.22C147.17 3.22 146.08 3.29 145.66 3.29C145.42 3.29 144.23 3.26 144.00 3.26C143.82 3.26 143.75 3.28 143.75 3.51ZM146.20 8.05L146.20 4.40C146.20 4.05 146.22 3.70 146.26 3.68C146.38 3.67 146.55 3.67 146.69 3.67C148.34 3.67 149.60 4.47 149.60 5.80C149.60 7.57 148.27 8.19 146.69 8.19C146.44 8.19 146.20 8.16 146.20 8.05ZM158.65 3.51C158.65 3.72 158.72 3.79 158.91 3.79L159.73 3.77C159.82 3.77 159.87 6.61 159.87 8.55L159.87 10.42C159.87 11.30 159.85 12.18 159.81 12.18L159.21 12.18C158.98 12.18 158.91 12.19 158.91 12.39C158.91 12.63 158.96 12.68 159.15 12.68C159.28 12.68 160.10 12.64 160.52 12.64C160.94 12.64 161.71 12.68 162.04 12.68C162.20 12.68 162.23 12.61 162.23 12.40C162.23 12.24 162.20 12.18 162.04 12.18L161.22 12.18C161.15 12.18 161.07 9.18 161.07 8.37C161.07 8.30 161.07 8.26 161.18 8.26C161.57 8.26 162.18 8.27 162.47 8.27C164.71 8.32 164.85 10.00 164.85 11.68L164.85 12.49C164.85 12.61 164.91 12.64 165.00 12.64C165.00 12.64 166.45 12.68 166.92 12.68C167.09 12.68 167.15 12.64 167.15 12.53C167.15 12.24 167.09 12.18 166.94 12.18L166.29 12.18C166.19 12.18 166.17 12.14 166.14 11.31C166.05 8.99 164.68 8.34 163.77 8.05C163.63 8.01 163.66 8.01 163.77 7.95C164.36 7.69 165.68 6.94 165.68 5.63C165.68 3.63 163.98 3.21 162.58 3.21C162.26 3.21 160.97 3.29 160.55 3.29C160.13 3.29 159.15 3.26 158.93 3.26C158.75 3.26 158.65 3.28 158.65 3.51ZM161.07 7.80L161.07 4.40C161.07 4.05 161.10 3.68 161.14 3.68C161.35 3.65 161.63 3.65 161.85 3.65C163.16 3.65 164.40 4.47 164.40 5.82C164.40 6.99 163.86 7.57 163.20 7.88C163.16 7.90 163.11 7.90 163.04 7.90C162.57 7.88 161.85 7.88 161.25 7.87C161.08 7.87 161.07 7.85 161.07 7.80ZM174.48 12.39C174.48 12.63 174.52 12.68 174.72 12.68C175.04 12.68 175.80 12.64 176.51 12.64C177.17 12.64 177.97 12.68 178.19 12.68C178.36 12.68 178.39 12.61 178.39 12.40C178.39 12.24 178.36 12.18 178.19 12.18L177.23 12.18C177.13 12.18 177.10 9.55 177.10 7.76L177.10 5.87C177.10 5.14 177.13 3.70 177.23 3.70L178.14 3.70C178.36 3.70 178.39 3.68 178.39 3.49C178.39 3.25 178.36 3.19 178.19 3.19C177.87 3.19 177.20 3.23 176.54 3.23C175.73 3.23 175.01 3.19 174.79 3.19C174.61 3.19 174.54 3.21 174.54 3.44C174.54 3.68 174.62 3.70 174.79 3.70L175.71 3.70C175.76 3.70 175.83 4.79 175.83 5.71L175.83 7.08C175.83 8.92 175.81 12.18 175.70 12.18L174.78 12.18C174.55 12.18 174.48 12.19 174.48 12.39ZM185.86 3.51C185.86 3.75 185.96 3.77 186.13 3.77L186.56 3.77C186.65 3.77 189.43 10.99 189.48 11.07C189.97 12.18 190.06 12.99 190.27 12.99C190.54 12.99 190.60 12.67 190.88 12.26C191.03 12.04 191.11 12.01 191.27 11.66L194.50 4.06C194.61 3.81 194.60 3.77 194.96 3.77C195.19 3.77 195.26 3.75 195.26 3.56C195.26 3.32 195.22 3.26 195.02 3.26C194.88 3.26 194.35 3.30 193.93 3.30C193.51 3.30 192.68 3.26 192.46 3.26C192.26 3.26 192.21 3.29 192.21 3.51C192.21 3.75 192.33 3.77 192.50 3.77L193.49 3.77C193.56 3.77 193.58 3.81 193.58 3.95C193.58 4.63 191.90 8.72 191.17 10.63C191.03 10.99 190.95 11.17 190.90 11.17C190.86 11.17 190.76 10.98 190.62 10.60C190.05 9.10 188.92 6.01 188.40 4.49C188.31 4.27 188.23 3.93 188.23 3.79L188.23 3.77L189.21 3.77C189.43 3.77 189.50 3.75 189.50 3.56C189.50 3.32 189.46 3.26 189.27 3.26C188.94 3.26 187.87 3.30 187.45 3.30C187.03 3.30 186.31 3.26 186.13 3.26C185.95 3.26 185.86 3.28 185.86 3.51ZM201.05 12.39C201.05 12.63 201.05 12.68 201.25 12.68C201.42 12.68 201.74 12.64 202.31 12.64C202.93 12.64 203.48 12.68 203.63 12.68C203.80 12.68 203.80 12.61 203.80 12.40C203.80 12.24 203.80 12.18 203.63 12.18L202.55 12.18C202.55 12.18 202.54 12.18 202.54 12.17C202.55 11.87 203.32 9.90 203.67 9.02C203.74 8.83 203.76 8.79 203.97 8.79L206.79 8.79C206.93 8.79 206.93 8.81 207.00 9.03C207.27 9.77 207.98 11.89 207.98 12.17C207.98 12.18 207.97 12.18 207.97 12.18L207.20 12.18C206.98 12.18 206.96 12.19 206.96 12.39C206.96 12.63 206.98 12.68 207.14 12.68C207.47 12.68 208.33 12.64 208.75 12.64C209.17 12.64 209.85 12.68 210.06 12.68C210.20 12.68 210.21 12.61 210.21 12.40C210.21 12.24 210.20 12.18 210.06 12.18L209.57 12.18C209.47 12.18 208.45 9.34 207.89 7.78L206.21 3.07C206.19 3.00 206.12 2.94 206.04 2.94C205.91 2.94 205.81 3.16 205.73 3.35C205.58 3.71 205.34 3.84 205.23 4.13L203.74 7.57C203.56 8.01 201.85 12.18 201.73 12.18L201.31 12.18C201.08 12.18 201.05 12.19 201.05 12.39ZM203.95 8.33C203.95 8.30 203.98 8.23 204.02 8.13L205.39 4.77C205.44 4.66 205.46 4.61 205.49 4.61C205.51 4.61 205.52 4.63 205.56 4.77L206.72 8.18C206.75 8.25 206.77 8.29 206.77 8.32C206.77 8.36 206.74 8.37 206.64 8.37L204.13 8.37C203.95 8.37 203.95 8.34 203.95 8.33ZM217.76 7.91C217.76 11.31 220.12 12.87 222.71 12.87C224.49 12.87 226.27 11.90 226.31 11.59C226.48 10.29 226.53 9.70 226.53 9.66C226.53 9.56 226.49 9.52 226.32 9.51C226.27 9.51 226.21 9.49 226.17 9.49C226.06 9.49 226.00 9.53 225.97 9.70L225.79 11.33C225.78 11.45 224.67 12.24 223.10 12.24C220.98 12.24 219.27 10.29 219.27 7.94C219.27 5.42 220.70 3.54 222.70 3.54C224.55 3.54 225.89 5.01 225.89 5.17C225.89 5.29 225.83 6.40 225.83 6.45C225.83 6.59 225.88 6.64 226.14 6.64C226.34 6.64 226.41 6.62 226.41 6.44C226.41 5.73 226.46 3.92 226.46 3.67C226.46 3.47 226.35 3.44 226.14 3.44C225.92 3.44 225.89 3.50 225.89 3.67L225.89 4.05C225.89 4.16 225.85 4.16 225.72 4.06C225.44 3.86 224.46 3.04 222.80 3.04C219.95 3.04 217.76 4.96 217.76 7.91ZM234.50 3.44C234.50 3.68 234.58 3.70 234.75 3.70L235.16 3.70C235.28 3.70 237.54 7.74 237.94 8.50C238 8.60 238.04 8.65 238.04 8.81C238.04 10.50 238.03 12.18 237.90 12.18L237.19 12.18C236.96 12.18 236.92 12.19 236.92 12.39C236.92 12.63 236.94 12.68 237.13 12.68C237.33 12.68 238.14 12.64 238.73 12.64C239.55 12.64 240.09 12.68 240.41 12.68C240.58 12.68 240.60 12.61 240.60 12.40C240.60 12.24 240.58 12.18 240.41 12.18L239.44 12.18C239.34 12.18 239.32 9.72 239.32 8.22C239.32 8.18 239.32 8.15 239.36 8.09C239.90 7.22 241.85 3.70 241.92 3.70L242.40 3.70C242.56 3.70 242.66 3.68 242.66 3.44C242.66 3.22 242.58 3.19 242.40 3.19C242.17 3.19 241.93 3.23 241.33 3.23C240.74 3.23 240.41 3.19 240.24 3.19C240.04 3.19 240.00 3.25 240.00 3.49C240.00 3.68 240.07 3.70 240.30 3.70L241.02 3.70C241.04 3.70 241.05 3.71 241.05 3.74C241.05 4.05 239.48 6.99 239.11 7.71C238.99 7.92 238.99 7.88 238.88 7.67C238.48 6.89 237.19 4.56 236.89 3.85C236.84 3.71 236.82 3.70 237.01 3.70L237.83 3.70C238.06 3.70 238.08 3.68 238.08 3.49C238.08 3.25 238.04 3.19 237.89 3.19C237.65 3.19 237.03 3.23 236.24 3.23C235.42 3.23 234.93 3.19 234.75 3.19C234.57 3.19 234.50 3.21 234.50 3.44ZM249.58 12.07C249.58 12.31 250.03 12.75 250.45 12.75C250.63 12.75 251.08 12.35 251.08 11.90C251.08 11.51 250.50 11.20 250.24 11.20C249.97 11.20 249.58 11.76 249.58 12.07ZM269.19 12.39C269.19 12.63 269.22 12.68 269.42 12.68C269.74 12.68 270.70 12.64 271.12 12.64C271.54 12.64 275.90 12.68 276.22 12.68C276.49 12.68 276.56 12.66 276.57 12.49C276.63 12.08 276.86 10.72 276.86 10.60C276.86 10.47 276.71 10.44 276.54 10.43C276.44 10.42 276.36 10.46 276.35 10.56L276.18 11.76C276.14 12.05 276.12 12.03 275.90 12.04C275.74 12.05 273.24 12.12 271.81 12.12C271.77 12.12 271.73 11.38 271.73 10.54L271.73 6.66C271.73 5.40 271.74 3.70 271.84 3.70L272.82 3.70C273.06 3.70 273.08 3.63 273.08 3.44C273.08 3.23 273.07 3.19 272.83 3.19C272.51 3.19 271.57 3.23 271.15 3.23C270.73 3.23 269.79 3.19 269.57 3.19C269.35 3.19 269.29 3.22 269.29 3.44C269.29 3.65 269.33 3.70 269.53 3.70L270.35 3.70C270.40 3.70 270.42 4.23 270.42 4.90L270.42 8.13C270.42 10.07 270.40 12.18 270.31 12.18L269.47 12.18C269.25 12.18 269.19 12.21 269.19 12.39ZM284.41 8.15C284.41 11.17 286.75 12.80 289.00 12.80C291.79 12.80 293.76 10.89 293.76 8.06C293.76 5.33 292.01 3.11 289.21 3.11C286.61 3.11 284.41 5.10 284.41 8.15ZM285.81 7.77C285.81 5.64 287.10 3.58 289.07 3.58C291.31 3.58 292.39 5.81 292.39 7.94C292.39 10.08 291.28 12.32 289.02 12.32C287.03 12.32 285.81 10.28 285.81 7.77ZM301.03 3.44C301.03 3.68 301.11 3.70 301.28 3.70L301.69 3.70C301.81 3.70 304.07 7.74 304.47 8.50C304.53 8.60 304.57 8.65 304.57 8.81C304.57 10.50 304.56 12.18 304.43 12.18L303.72 12.18C303.49 12.18 303.45 12.19 303.45 12.39C303.45 12.63 303.46 12.68 303.66 12.68C303.86 12.68 304.67 12.64 305.26 12.64C306.08 12.64 306.61 12.68 306.94 12.68C307.10 12.68 307.13 12.61 307.13 12.40C307.13 12.24 307.10 12.18 306.94 12.18L305.97 12.18C305.87 12.18 305.84 9.72 305.84 8.22C305.84 8.18 305.84 8.15 305.89 8.09C306.43 7.22 308.38 3.70 308.45 3.70L308.92 3.70C309.09 3.70 309.19 3.68 309.19 3.44C309.19 3.22 309.11 3.19 308.92 3.19C308.70 3.19 308.46 3.23 307.86 3.23C307.27 3.23 306.94 3.19 306.77 3.19C306.57 3.19 306.53 3.25 306.53 3.49C306.53 3.68 306.60 3.70 306.82 3.70L307.55 3.70C307.57 3.70 307.58 3.71 307.58 3.74C307.58 4.05 306.01 6.99 305.63 7.71C305.52 7.92 305.52 7.88 305.41 7.67C305.00 6.89 303.72 4.56 303.42 3.85C303.37 3.71 303.35 3.70 303.53 3.70L304.36 3.70C304.58 3.70 304.61 3.68 304.61 3.49C304.61 3.25 304.57 3.19 304.42 3.19C304.18 3.19 303.56 3.23 302.76 3.23C301.95 3.23 301.46 3.19 301.28 3.19C301.10 3.19 301.03 3.21 301.03 3.44ZM315.41 12.39C315.41 12.63 315.41 12.68 315.60 12.68C315.77 12.68 316.09 12.64 316.67 12.64C317.28 12.64 317.83 12.68 317.98 12.68C318.15 12.68 318.15 12.61 318.15 12.40C318.15 12.24 318.15 12.18 317.98 12.18L316.90 12.18C316.90 12.18 316.89 12.18 316.89 12.17C316.90 11.87 317.67 9.90 318.02 9.02C318.09 8.83 318.11 8.79 318.32 8.79L321.15 8.79C321.29 8.79 321.29 8.81 321.36 9.03C321.62 9.77 322.34 11.89 322.34 12.17C322.34 12.18 322.32 12.18 322.32 12.18L321.55 12.18C321.33 12.18 321.31 12.19 321.31 12.39C321.31 12.63 321.33 12.68 321.50 12.68C321.82 12.68 322.69 12.64 323.11 12.64C323.53 12.64 324.20 12.68 324.41 12.68C324.55 12.68 324.56 12.61 324.56 12.40C324.56 12.24 324.55 12.18 324.41 12.18L323.92 12.18C323.82 12.18 322.80 9.34 322.24 7.78L320.56 3.07C320.54 3.00 320.47 2.94 320.39 2.94C320.26 2.94 320.17 3.16 320.08 3.35C319.93 3.71 319.69 3.84 319.58 4.13L318.09 7.57C317.91 8.01 316.20 12.18 316.08 12.18L315.66 12.18C315.43 12.18 315.41 12.19 315.41 12.39ZM318.30 8.33C318.30 8.30 318.33 8.23 318.37 8.13L319.75 4.77C319.79 4.66 319.82 4.61 319.84 4.61C319.86 4.61 319.87 4.63 319.91 4.77L321.08 8.18C321.10 8.25 321.12 8.29 321.12 8.32C321.12 8.36 321.09 8.37 320.99 8.37L318.49 8.37C318.30 8.37 318.30 8.34 318.30 8.33ZM332.32 12.39C332.32 12.63 332.35 12.68 332.54 12.68C332.86 12.68 333.83 12.64 334.25 12.64C334.67 12.64 339.02 12.68 339.35 12.68C339.61 12.68 339.68 12.66 339.70 12.49C339.75 12.08 339.99 10.72 339.99 10.60C339.99 10.47 339.84 10.44 339.67 10.43C339.57 10.42 339.49 10.46 339.47 10.56L339.30 11.76C339.26 12.05 339.25 12.03 339.02 12.04C338.87 12.05 336.36 12.12 334.94 12.12C334.89 12.12 334.85 11.38 334.85 10.54L334.85 6.66C334.85 5.40 334.87 3.70 334.96 3.70L335.94 3.70C336.18 3.70 336.21 3.63 336.21 3.44C336.21 3.23 336.20 3.19 335.96 3.19C335.64 3.19 334.70 3.23 334.28 3.23C333.86 3.23 332.92 3.19 332.70 3.19C332.47 3.19 332.42 3.22 332.42 3.44C332.42 3.65 332.46 3.70 332.65 3.70L333.48 3.70C333.52 3.70 333.55 4.23 333.55 4.90L333.55 8.13C333.55 10.07 333.52 12.18 333.44 12.18L332.60 12.18C332.37 12.18 332.32 12.21 332.32 12.39ZM345.94 5.01C345.94 5.17 346.12 5.17 346.25 5.17C346.40 5.17 346.44 5.15 346.46 4.97L346.57 3.89C346.58 3.81 347.13 3.75 347.89 3.75L349.87 3.75C349.93 3.75 349.96 4.35 349.96 4.97C349.96 6.43 349.90 12.18 349.78 12.18L348.91 12.18C348.68 12.18 348.64 12.19 348.64 12.39C348.64 12.63 348.66 12.68 348.85 12.68C349.17 12.68 350.15 12.64 350.57 12.64C350.99 12.64 351.93 12.68 352.25 12.68C352.42 12.68 352.45 12.61 352.45 12.40C352.45 12.24 352.42 12.18 352.25 12.18L351.26 12.18C351.23 12.18 351.23 11.76 351.23 11.31C351.23 9.56 351.32 5.96 351.32 5.92C351.33 5.18 351.33 3.75 351.43 3.75L353.04 3.75C353.75 3.75 354.58 3.78 354.58 3.85C354.58 3.99 354.54 4.90 354.54 4.97C354.54 5.12 354.61 5.17 354.79 5.17C354.98 5.17 355.05 5.17 355.05 5.03C355.05 3.93 355.11 3.40 355.11 3.14C355.11 2.94 355.03 2.94 354.83 2.94C354.68 2.94 354.62 2.98 354.61 3.16C354.61 3.23 353.96 3.28 353.12 3.28L348.12 3.28C347.47 3.28 346.65 3.28 346.65 3.21L346.65 3.07C346.65 2.94 346.53 2.94 346.43 2.94C346.21 2.94 346.18 3.00 346.16 3.19C346.11 3.89 345.94 4.97 345.94 5.01ZM362.45 3.44C362.45 3.68 362.53 3.70 362.70 3.70L363.10 3.70C363.23 3.70 365.48 7.74 365.89 8.50C365.95 8.60 365.99 8.65 365.99 8.81C365.99 10.50 365.97 12.18 365.85 12.18L365.13 12.18C364.91 12.18 364.87 12.19 364.87 12.39C364.87 12.63 364.88 12.68 365.08 12.68C365.27 12.68 366.09 12.64 366.67 12.64C367.50 12.64 368.03 12.68 368.35 12.68C368.52 12.68 368.55 12.61 368.55 12.40C368.55 12.24 368.52 12.18 368.35 12.18L367.39 12.18C367.29 12.18 367.26 9.72 367.26 8.22C367.26 8.18 367.26 8.15 367.30 8.09C367.85 7.22 369.80 3.70 369.87 3.70L370.34 3.70C370.51 3.70 370.61 3.68 370.61 3.44C370.61 3.22 370.52 3.19 370.34 3.19C370.12 3.19 369.88 3.23 369.28 3.23C368.69 3.23 368.35 3.19 368.19 3.19C367.99 3.19 367.95 3.25 367.95 3.49C367.95 3.68 368.02 3.70 368.24 3.70L368.97 3.70C368.98 3.70 369.00 3.71 369.00 3.74C369.00 4.05 367.43 6.99 367.05 7.71C366.94 7.92 366.94 7.88 366.83 7.67C366.42 6.89 365.13 4.56 364.84 3.85C364.78 3.71 364.77 3.70 364.95 3.70L365.78 3.70C366.00 3.70 366.03 3.68 366.03 3.49C366.03 3.25 365.99 3.19 365.83 3.19C365.60 3.19 364.98 3.23 364.18 3.23C363.37 3.23 362.88 3.19 362.70 3.19C362.52 3.19 362.45 3.21 362.45 3.44ZM377.52 12.07C377.52 12.31 377.97 12.75 378.39 12.75C378.57 12.75 379.02 12.35 379.02 11.90C379.02 11.51 378.45 11.20 378.18 11.20C377.92 11.20 377.52 11.76 377.52 12.07Z"></path></g></svg>