<svg data-v-fde0c5aa="" xmlns="http://www.w3.org/2000/svg" viewBox="0 0 300 300" class="font"><!----><defs data-v-fde0c5aa=""><!----></defs><rect data-v-fde0c5aa="" fill="transparent" x="0" y="0" width="300px" height="300px" class="logo-background-square"></rect><defs data-v-fde0c5aa=""><linearGradient data-v-fde0c5aa="" gradientTransform="rotate(25)" id="3cdfcc91-93c0-49e5-a913-a18583e4e492" x1="0%" y1="0%" x2="100%" y2="0%"><stop data-v-fde0c5aa="" offset="0%" stop-color="#08C7D6" stop-opacity="1"></stop><stop data-v-fde0c5aa="" offset="100%" stop-color="#02023E" stop-opacity="1"></stop></linearGradient></defs><g data-v-fde0c5aa="" id="e61120c2-07e6-46a0-9638-eae64f73a4e8" fill="url(#3cdfcc91-93c0-49e5-a913-a18583e4e492)" transform="matrix(2.244668960571289,0,0,2.244668960571289,37.19416392198666,133.8271606162077)"><path d="M6.08 6.20C7.38 5.91 7.90 4.68 7.90 3.42C7.90 2.28 7.42 1.41 6.47 1.05C5.91 0.84 5.25 0.76 4.24 0.76L1.25 0.76L1.25 10.64L2.37 10.64L2.37 6.40L4.14 6.40C4.80 6.40 5.54 6.33 6.08 6.20ZM2.37 5.68L2.37 1.44L4.26 1.44C4.90 1.44 5.50 1.48 5.94 1.74C6.51 2.07 6.72 2.79 6.72 3.46C6.72 4.34 6.47 5.03 5.95 5.33C5.60 5.54 5.03 5.68 4.17 5.68ZM10.57 10.64L10.57 6.40C10.57 5.78 10.68 5.26 10.95 4.90C11.26 4.48 11.68 4.34 12.14 4.34C12.42 4.34 12.77 4.38 13.05 4.51L13.05 3.54C12.81 3.47 12.57 3.44 12.29 3.44C11.65 3.44 10.88 3.86 10.53 4.62C10.53 4.41 10.49 3.92 10.42 3.58L9.38 3.58C9.48 4.23 9.52 5.04 9.52 5.73L9.52 10.64ZM15.61 10.64L15.61 3.58L14.55 3.58L14.55 10.64ZM15.72 1.40C15.72 0.87 15.53 0.70 15.09 0.70C14.64 0.70 14.42 0.88 14.42 1.40C14.42 1.95 14.63 2.10 15.06 2.10C15.51 2.10 15.72 1.92 15.72 1.40ZM23.25 3.58L22.22 3.58C20.92 7.31 20.58 8.23 20.16 9.62C19.68 8.19 19.39 7.32 18.03 3.58L16.87 3.58L19.53 10.64L20.52 10.64ZM28.35 10.64L29.37 10.64C29.20 10.11 29.19 9.56 29.19 9.09L29.19 5.80C29.19 4.79 28.99 4.33 28.63 3.95C28.20 3.51 27.50 3.40 26.80 3.40C26.11 3.40 25.20 3.56 24.46 3.91L24.46 4.72C25.33 4.24 26.08 4.14 26.67 4.14C27.19 4.14 27.59 4.28 27.83 4.59C28.07 4.90 28.15 5.39 28.15 5.91L28.15 6.54C27.90 6.52 27.54 6.51 27.27 6.51C24.82 6.51 23.79 7.28 23.79 8.65C23.79 9.90 24.61 10.81 26.04 10.81C27.16 10.81 27.82 10.32 28.18 9.66C28.20 9.93 28.28 10.40 28.35 10.64ZM28.15 7.11L28.15 8.11C28.15 8.57 28.08 9.03 27.82 9.34C27.45 9.79 26.91 10.09 26.25 10.09C25.35 10.09 24.85 9.52 24.85 8.62C24.85 7.78 25.45 7.10 27.47 7.10C27.69 7.10 27.96 7.10 28.15 7.11ZM34.59 10.58L34.59 9.88C34.36 9.97 33.98 10.01 33.70 10.01C33.32 10.01 33.01 9.87 32.90 9.62C32.82 9.42 32.76 9.11 32.76 8.51L32.76 4.21L34.34 4.21L34.34 3.58L32.76 3.58L32.76 1.76L31.81 1.76C31.74 2.79 31.71 3.58 31.71 3.58L30.63 3.58L30.63 4.21L31.71 4.21L31.71 8.53C31.71 9.21 31.74 9.65 31.95 10.02C32.20 10.50 32.69 10.74 33.50 10.74C33.85 10.74 34.30 10.67 34.59 10.58ZM41.16 7.10L41.16 6.82C41.16 6.06 41.09 5.33 40.82 4.76C40.43 3.93 39.84 3.40 38.43 3.40C36.50 3.40 35.39 4.72 35.39 7.08C35.39 9.67 36.48 10.82 38.56 10.82C39.68 10.82 40.39 10.56 40.88 10.29L40.88 9.49C40.31 9.80 39.70 10.11 38.72 10.11C37.28 10.11 36.48 9.09 36.47 7.10ZM40.03 6.51L36.50 6.51C36.55 4.61 37.49 4.02 38.39 4.02C39.77 4.02 40.03 5.00 40.03 6.51ZM47.19 4.41C47.17 4.19 47.11 3.79 47.07 3.58L46.05 3.58C46.12 4.03 46.17 4.69 46.17 5.22L46.17 13.71L47.22 13.71L47.22 10.16C47.71 10.60 48.31 10.79 49.14 10.79C50.39 10.79 52.00 10.08 52.00 7.01C52.00 4.63 51.02 3.43 49.34 3.43C48.43 3.43 47.75 3.77 47.19 4.41ZM47.21 7.18C47.21 5.29 47.31 4.93 47.81 4.52C48.06 4.33 48.55 4.06 49.13 4.06C50.26 4.06 50.90 4.98 50.90 7.03C50.90 9.25 50.15 10.16 49.03 10.16C48.44 10.16 47.94 10.05 47.57 9.65C47.25 9.30 47.21 8.74 47.21 7.18ZM54.96 10.64L54.96 6.40C54.96 5.78 55.08 5.26 55.34 4.90C55.65 4.48 56.07 4.34 56.53 4.34C56.81 4.34 57.16 4.38 57.44 4.51L57.44 3.54C57.20 3.47 56.97 3.44 56.69 3.44C56.04 3.44 55.27 3.86 54.92 4.62C54.92 4.41 54.88 3.92 54.81 3.58L53.77 3.58C53.87 4.23 53.91 5.04 53.91 5.73L53.91 10.64ZM64.43 7.10C64.43 4.52 63.50 3.40 61.43 3.40C59.44 3.40 58.24 4.69 58.24 7.11C58.24 9.53 59.30 10.81 61.31 10.81C63.49 10.81 64.43 9.42 64.43 7.10ZM63.34 7.08C63.34 8.96 62.83 10.19 61.36 10.19C60.00 10.19 59.33 9.14 59.33 7.13C59.33 5.00 60.10 4.03 61.40 4.03C62.78 4.03 63.34 4.98 63.34 7.08ZM69.40 10.58L69.40 9.88C69.16 9.97 68.78 10.01 68.50 10.01C68.12 10.01 67.82 9.87 67.70 9.62C67.62 9.42 67.56 9.11 67.56 8.51L67.56 4.21L69.15 4.21L69.15 3.58L67.56 3.58L67.56 1.76L66.61 1.76C66.54 2.79 66.51 3.58 66.51 3.58L65.44 3.58L65.44 4.21L66.51 4.21L66.51 8.53C66.51 9.21 66.54 9.65 66.75 10.02C67.00 10.50 67.49 10.74 68.31 10.74C68.66 10.74 69.10 10.67 69.40 10.58ZM75.96 7.10L75.96 6.82C75.96 6.06 75.89 5.33 75.63 4.76C75.24 3.93 74.65 3.40 73.23 3.40C71.30 3.40 70.20 4.72 70.20 7.08C70.20 9.67 71.29 10.82 73.36 10.82C74.48 10.82 75.19 10.56 75.68 10.29L75.68 9.49C75.11 9.80 74.51 10.11 73.53 10.11C72.09 10.11 71.29 9.09 71.27 7.10ZM74.83 6.51L71.30 6.51C71.36 4.61 72.30 4.02 73.19 4.02C74.58 4.02 74.83 5.00 74.83 6.51ZM82.18 10.43L82.18 9.65C81.68 9.91 81.13 10.11 80.46 10.11C79.17 10.11 78.26 9.23 78.26 7.15C78.26 5.10 79.06 4.14 80.43 4.14C81.06 4.14 81.66 4.24 82.14 4.54L82.14 3.61C81.68 3.47 81.10 3.40 80.44 3.40C78.39 3.40 77.17 4.65 77.17 7.22C77.17 9.70 78.36 10.82 80.26 10.82C81.19 10.82 81.76 10.63 82.18 10.43ZM86.83 10.58L86.83 9.88C86.59 9.97 86.21 10.01 85.93 10.01C85.55 10.01 85.25 9.87 85.13 9.62C85.05 9.42 84.99 9.11 84.99 8.51L84.99 4.21L86.58 4.21L86.58 3.58L84.99 3.58L84.99 1.76L84.04 1.76C83.97 2.79 83.94 3.58 83.94 3.58L82.87 3.58L82.87 4.21L83.94 4.21L83.94 8.53C83.94 9.21 83.97 9.65 84.18 10.02C84.43 10.50 84.92 10.74 85.74 10.74C86.09 10.74 86.53 10.67 86.83 10.58ZM93.81 7.10C93.81 4.52 92.89 3.40 90.82 3.40C88.83 3.40 87.63 4.69 87.63 7.11C87.63 9.53 88.69 10.81 90.69 10.81C92.88 10.81 93.81 9.42 93.81 7.10ZM92.72 7.08C92.72 8.96 92.22 10.19 90.75 10.19C89.39 10.19 88.72 9.14 88.72 7.13C88.72 5.00 89.49 4.03 90.79 4.03C92.16 4.03 92.72 4.98 92.72 7.08ZM96.78 10.64L96.78 6.40C96.78 5.78 96.89 5.26 97.16 4.90C97.47 4.48 97.89 4.34 98.35 4.34C98.63 4.34 98.98 4.38 99.26 4.51L99.26 3.54C99.02 3.47 98.78 3.44 98.50 3.44C97.86 3.44 97.09 3.86 96.74 4.62C96.74 4.41 96.70 3.92 96.63 3.58L95.59 3.58C95.69 4.23 95.73 5.04 95.73 5.73L95.73 10.64Z"></path></g><!----><!----></svg>