<?xml version="1.0" encoding="UTF-8" standalone="no"?>
<svg
   xmlns:dc="http://purl.org/dc/elements/1.1/"
   xmlns:cc="http://creativecommons.org/ns#"
   xmlns:rdf="http://www.w3.org/1999/02/22-rdf-syntax-ns#"
   xmlns:svg="http://www.w3.org/2000/svg"
   xmlns="http://www.w3.org/2000/svg"
   xmlns:xlink="http://www.w3.org/1999/xlink"
   xmlns:sodipodi="http://sodipodi.sourceforge.net/DTD/sodipodi-0.dtd"
   xmlns:inkscape="http://www.inkscape.org/namespaces/inkscape"
   data-v-fde0c5aa=""
   viewBox="0 0 36.755371 44.509541"
   class="iconLeftSlogan"
   version="1.1"
   id="svg28"
   sodipodi:docname="logo.svg"
   width="36.755371"
   height="44.509541"
   inkscape:version="1.0.2 (e86c870879, 2021-01-15, custom)">
  <metadata
     id="metadata32">
    <rdf:RDF>
      <cc:Work
         rdf:about="">
        <dc:format>image/svg+xml</dc:format>
        <dc:type
           rdf:resource="http://purl.org/dc/dcmitype/StillImage" />
        <dc:title></dc:title>
      </cc:Work>
    </rdf:RDF>
  </metadata>
  <sodipodi:namedview
     pagecolor="#ffffff"
     bordercolor="#666666"
     borderopacity="1"
     objecttolerance="10"
     gridtolerance="10"
     guidetolerance="10"
     inkscape:pageopacity="0"
     inkscape:pageshadow="2"
     inkscape:window-width="948"
     inkscape:window-height="1050"
     id="namedview30"
     showgrid="false"
     inkscape:zoom="2.9233333"
     inkscape:cx="110"
     inkscape:cy="22.254772"
     inkscape:window-x="5"
     inkscape:window-y="21"
     inkscape:window-maximized="0"
     inkscape:current-layer="svg28" />
  <!---->
  <defs
     data-v-fde0c5aa=""
     id="defs2">
    <!---->
    <linearGradient
       inkscape:collect="always"
       xlink:href="#2117b952-2b60-4508-b771-73a09ca445d2"
       id="linearGradient34"
       gradientTransform="scale(0.89729868,1.1144561)"
       x1="23.569407"
       y1="12.261587"
       x2="88.622664"
       y2="12.261587"
       gradientUnits="userSpaceOnUse" />
    <linearGradient
       inkscape:collect="always"
       xlink:href="#2117b952-2b60-4508-b771-73a09ca445d2"
       id="linearGradient36"
       gradientTransform="scale(0.90872786,1.1004395)"
       x1="13.624835"
       y1="3.0489795"
       x2="98.398952"
       y2="3.0489795"
       gradientUnits="userSpaceOnUse" />
    <linearGradient
       inkscape:collect="always"
       xlink:href="#2117b952-2b60-4508-b771-73a09ca445d2"
       id="linearGradient38"
       gradientTransform="scale(0.90872786,1.1004395)"
       x1="13.624835"
       y1="3.0489795"
       x2="98.398952"
       y2="3.0489795"
       gradientUnits="userSpaceOnUse" />
  </defs>
  <defs
     data-v-fde0c5aa=""
     id="defs6">
    <!---->
  </defs>
  <defs
     data-v-fde0c5aa=""
     id="defs16">
    <linearGradient
       data-v-fde0c5aa=""
       gradientTransform="rotate(25)"
       id="2117b952-2b60-4508-b771-73a09ca445d2"
       x1="0"
       y1="0"
       x2="1"
       y2="0">
      <stop
         data-v-fde0c5aa=""
         offset="0%"
         stop-color="#08C7D6"
         stop-opacity="1"
         id="stop11" />
      <stop
         data-v-fde0c5aa=""
         offset="100%"
         stop-color="#02023E"
         stop-opacity="1"
         id="stop13" />
    </linearGradient>
  </defs>
  <g
     data-v-fde0c5aa=""
     id="9f340fa1-dd13-4482-a008-4db09ce73cc1"
     stroke="none"
     fill="url(#2117b952-2b60-4508-b771-73a09ca445d2)"
     transform="matrix(0.47711569,0,0,0.47711569,-5.9072972,-1.6008282)"
     style="fill:url(#linearGradient38)">
    <path
       d="m 50.123,13.665 c -1.917,0 -8.432,0.09 -14.569,1.198 -0.753,3.264 -4.041,14.249 -14.254,15.037 -0.192,2.428 -0.454,8.75 1.004,16.565 3.675,0.878 14.169,3.029 28.596,2.97 V 13.671 c -0.084,0 -0.338,-0.006 -0.777,-0.006 z m 0.776,72.499 C 70.24,75.846 77.168,59.127 79.521,46.393 A 140.398,140.398 0 0 1 50.9,49.435 v 36.729 z"
       id="path18"
       style="fill:url(#linearGradient34)" />
    <path
       d="M 89.052,23.537 C 74.169,23.537 71.275,5.069 71.275,5.069 61.587,3.152 50.9,3.362 50.9,3.362 c 0,0 -10.686,-0.21 -20.375,1.707 0,0 -2.895,18.468 -17.778,18.468 0,0 -6.791,49.736 38.153,73.107 C 95.844,73.273 89.052,23.537 89.052,23.537 Z M 51.493,88.766 50.899,89.075 50.303,88.766 C 13.672,69.715 18.792,28.889 18.851,28.479 l 0.152,-1.115 h 1.124 c 10.775,0 13.043,-13.667 13.067,-13.805 l 0.138,-0.889 0.884,-0.178 c 6.417,-1.269 13.262,-1.402 15.907,-1.402 0.474,0 0.753,0.004 0.795,0.004 0.003,0 0.283,-0.004 0.757,-0.004 2.646,0 9.487,0.134 15.907,1.402 l 0.882,0.178 0.142,0.889 c 0.091,0.562 2.322,13.805 13.066,13.805 h 1.125 l 0.151,1.115 c 0.057,0.41 5.179,41.236 -31.455,60.287 z"
       id="path20"
       style="fill:url(#linearGradient36)" />
  </g>
  <defs
     data-v-fde0c5aa=""
     id="defs23">
    <!---->
  </defs>
</svg>
